<svg xmlns="http://www.w3.org/2000/svg" width="1024" height="1024" viewBox="0 0 1024 1024">
  <defs>
    <linearGradient id="blue" x1="0" x2="1" y1="0" y2="1"><stop offset="0" stop-color="#004caa"/><stop offset="1" stop-color="#0079c8"/></linearGradient>
    <linearGradient id="orange" x1="0" x2="1"><stop offset="0" stop-color="#ff9d00"/><stop offset="1" stop-color="#ff6a00"/></linearGradient>
    <filter id="shadow"><feDropShadow dx="0" dy="16" stdDeviation="16" flood-color="#001b3f" flood-opacity=".35"/></filter>
  </defs>
  <rect width="1024" height="1024" rx="140" fill="#f4f8ff"/>
  <g filter="url(#shadow)">
    <rect x="185" y="260" width="654" height="445" rx="58" fill="url(#orange)"/>
    <path d="M185 380c160 58 488 58 654 0v145c-164 58-492 58-654 0z" fill="url(#blue)"/>
    <rect x="292" y="220" width="440" height="95" rx="38" fill="none" stroke="url(#blue)" stroke-width="34"/>
    <rect x="218" y="260" width="48" height="445" fill="#fff" opacity=".95"/>
    <rect x="758" y="260" width="48" height="445" fill="#fff" opacity=".95"/>
    <rect x="218" y="260" width="48" height="445" fill="#0059b8" opacity=".2"/>
    <rect x="758" y="260" width="48" height="445" fill="#0059b8" opacity=".2"/>
    <circle cx="295" cy="730" r="32" fill="url(#blue)"/>
    <circle cx="729" cy="730" r="32" fill="url(#blue)"/>
    <text x="512" y="475" text-anchor="middle" font-family="Brush Script MT, Segoe Script, cursive" font-size="160" font-weight="700" fill="#fff">Lenci</text>
    <path d="M305 515c120 44 294 44 414 0" fill="none" stroke="#fff" stroke-width="13" stroke-linecap="round"/>
    <text x="512" y="605" text-anchor="middle" font-family="Brush Script MT, Segoe Script, cursive" font-size="95" font-weight="700" fill="#fff">Tours</text>
  </g>
</svg>